<svg width="239" height="36" viewBox="0 0 239 36" fill="none" xmlns="http://www.w3.org/2000/svg">
<path d="M20.735 7.99C19.535 7.36 18.275 6.835 16.955 6.415C15.665 5.965 14.42 5.74 13.22 5.74C11.6 5.74 10.325 6.1 9.395 6.82C8.465 7.51 8 8.5 8 9.79C8 10.66 8.315 11.425 8.945 12.085C9.605 12.745 10.445 13.33 11.465 13.84C12.485 14.35 13.565 14.815 14.705 15.235C16.025 15.715 17.3 16.33 18.53 17.08C19.79 17.8 20.81 18.79 21.59 20.05C22.4 21.28 22.805 22.93 22.805 25C22.805 26.71 22.37 28.285 21.5 29.725C20.63 31.135 19.385 32.26 17.765 33.1C16.145 33.94 14.165 34.36 11.825 34.36C9.815 34.36 7.85 34.045 5.93 33.415C4.04 32.755 2.345 31.915 0.845 30.895L3.23 26.71C4.31 27.52 5.6 28.225 7.1 28.825C8.63 29.395 10.04 29.68 11.33 29.68C12.29 29.68 13.22 29.53 14.12 29.23C15.02 28.93 15.77 28.435 16.37 27.745C16.97 27.055 17.27 26.14 17.27 25C17.27 24.1 17 23.32 16.46 22.66C15.95 22 15.26 21.43 14.39 20.95C13.55 20.47 12.635 20.035 11.645 19.645C10.625 19.255 9.575 18.82 8.495 18.34C7.445 17.86 6.47 17.275 5.57 16.585C4.67 15.865 3.935 14.995 3.365 13.975C2.795 12.925 2.51 11.665 2.51 10.195C2.51 8.365 2.93 6.79 3.77 5.47C4.61 4.12 5.78 3.07 7.28 2.32C8.78 1.54 10.49 1.105 12.41 1.015C14.75 1.015 16.73 1.3 18.35 1.87C20 2.44 21.455 3.115 22.715 3.895L20.735 7.99ZM26.8564 1.42H33.0664L41.1214 24.46L40.2214 24.1L46.5214 7.99L48.9964 15.235L39.9514 35.53L26.8564 1.42ZM42.9214 1.42H48.2314L57.1414 23.965L56.1064 23.785L63.4864 1.42H69.2014L56.4214 35.44L42.9214 1.42ZM75.3066 1.195H97.0866V6.325H80.6166V14.965H95.2866V20.095H80.6166V28.87H97.7166V34H75.3066V1.195ZM104.97 1.195H126.75V6.325H110.28V14.965H124.95V20.095H110.28V28.87H127.38V34H104.97V1.195ZM132.293 1.195H154.253V6.325H145.793V34H140.483V6.325H132.293V1.195ZM160.868 1.195H166.178V34H160.868V1.195ZM204.039 35.215L178.884 10.915L180.459 11.545L180.549 34H175.194V0.0699996H175.419L200.169 24.37L198.954 23.965L198.864 1.195H204.174V35.215H204.039ZM210.463 1.195H217.213L238.588 34H231.748L210.463 1.195ZM210.013 34L221.533 15.955L224.053 21.175L216.583 34H210.013ZM224.323 13.975L231.793 1.195H238.183L227.113 18.52L224.323 13.975Z" fill="#FE9E0D"/>
</svg>
